<svg width="148" height="148" viewBox="0 0 148 148" fill="none" xmlns="http://www.w3.org/2000/svg">
<path fill-rule="evenodd" clip-rule="evenodd" d="M79.1844 2.81556C77.8092 1.44077 75.9443 0.668457 73.9997 0.668457C72.0552 0.668457 70.1903 1.44077 68.8151 2.81556L46.8151 24.8156C45.4403 26.1908 44.668 28.0557 44.668 30.0002C44.668 31.9448 45.4403 33.8097 46.8151 35.1849L68.8151 57.1849C70.1903 58.5597 72.0552 59.332 73.9997 59.332C75.9443 59.332 77.8092 58.5597 79.1844 57.1849L101.184 35.1849C102.559 33.8097 103.331 31.9448 103.331 30.0002C103.331 28.0557 102.559 26.1908 101.184 24.8156L79.1844 2.81556ZM68.8151 90.8156C70.1903 89.4408 72.0552 88.6685 73.9997 88.6685C75.9443 88.6685 77.8092 89.4408 79.1844 90.8156L101.184 112.816C102.559 114.191 103.331 116.056 103.331 118C103.331 119.945 102.559 121.81 101.184 123.185L79.1844 145.185C77.8092 146.56 75.9443 147.332 73.9997 147.332C72.0552 147.332 70.1903 146.56 68.8151 145.185L46.8151 123.185C45.4403 121.81 44.668 119.945 44.668 118C44.668 116.056 45.4403 114.191 46.8151 112.816L68.8151 90.8156ZM112.815 46.8156C114.19 45.4408 116.055 44.6685 118 44.6685C119.944 44.6685 121.809 45.4408 123.184 46.8156L145.184 68.8156C146.559 70.1908 147.331 72.0557 147.331 74.0002C147.331 75.9448 146.559 77.8097 145.184 79.1849L123.184 101.185C121.809 102.56 119.944 103.332 118 103.332C116.055 103.332 114.19 102.56 112.815 101.185L90.8151 79.1849C89.4403 77.8097 88.668 75.9448 88.668 74.0002C88.668 72.0557 89.4403 70.1908 90.8151 68.8156L112.815 46.8156ZM24.8151 46.8156C26.1903 45.4408 28.0552 44.6685 29.9997 44.6685C31.9443 44.6685 33.8092 45.4408 35.1844 46.8156L57.1844 68.8156C58.5592 70.1908 59.3315 72.0557 59.3315 74.0002C59.3315 75.9448 58.5592 77.8097 57.1844 79.1849L35.1844 101.185C33.8092 102.56 31.9443 103.332 29.9997 103.332C28.0552 103.332 26.1903 102.56 24.8151 101.185L2.81507 79.1849C1.44028 77.8097 0.667969 75.9448 0.667969 74.0002C0.667969 72.0557 1.44028 70.1908 2.81507 68.8156L24.8151 46.8156Z" fill="#2E3757"/>
</svg>
