<svg width="12" height="12" viewBox="0 0 12 12" fill="none" xmlns="http://www.w3.org/2000/svg">
<path fill-rule="evenodd" clip-rule="evenodd" d="M3.27616 0.166748H8.71866C10.702 0.166748 11.8337 1.28675 11.8337 3.27591V8.72425C11.8337 10.7017 10.7078 11.8334 8.72449 11.8334H3.27616C1.28699 11.8334 0.166992 10.7017 0.166992 8.72425V3.27591C0.166992 1.28675 1.28699 0.166748 3.27616 0.166748ZM6.47866 6.48425H8.13533C8.40366 6.47842 8.61949 6.26258 8.61949 5.99425C8.61949 5.72591 8.40366 5.51008 8.13533 5.51008H6.47866V3.86508C6.47866 3.59675 6.26283 3.38091 5.99449 3.38091C5.72616 3.38091 5.51033 3.59675 5.51033 3.86508V5.51008H3.85949C3.73116 5.51008 3.60866 5.56258 3.51533 5.65008C3.42783 5.74341 3.37533 5.86533 3.37533 5.99425C3.37533 6.26258 3.59116 6.47842 3.85949 6.48425H5.51033V8.13508C5.51033 8.40341 5.72616 8.61925 5.99449 8.61925C6.26283 8.61925 6.47866 8.40341 6.47866 8.13508V6.48425Z" fill="#42BBFF"/>
</svg>
