<svg width="20" height="20" viewBox="0 0 20 20" fill="none" xmlns="http://www.w3.org/2000/svg">
<rect x="3" y="3" width="14" height="14" rx="1" fill="#68D1BF" stroke="#68D1BF" stroke-width="2"/>
<g clip-path="url(#clip0_273_5315)">
<path fill-rule="evenodd" clip-rule="evenodd" d="M14.773 6.55547C14.9136 6.69612 14.9926 6.88685 14.9926 7.08572C14.9926 7.2846 14.9136 7.47533 14.773 7.61597L9.15151 13.2375C9.07722 13.3118 8.98902 13.3707 8.89195 13.4109C8.79488 13.4512 8.69084 13.4719 8.58576 13.4719C8.48069 13.4719 8.37665 13.4512 8.27957 13.4109C8.1825 13.3707 8.0943 13.3118 8.02001 13.2375L5.22701 10.445C5.15538 10.3758 5.09824 10.293 5.05894 10.2015C5.01963 10.11 4.99894 10.0116 4.99808 9.91202C4.99721 9.81244 5.01619 9.71368 5.0539 9.62151C5.09161 9.52933 5.1473 9.4456 5.21772 9.37518C5.28814 9.30476 5.37188 9.24907 5.46405 9.21136C5.55622 9.17365 5.65498 9.15467 5.75456 9.15553C5.85415 9.1564 5.95256 9.17709 6.04407 9.2164C6.13557 9.2557 6.21833 9.31284 6.28751 9.38447L8.58551 11.6825L13.712 6.55547C13.7817 6.48578 13.8644 6.43049 13.9554 6.39277C14.0464 6.35505 14.144 6.33563 14.2425 6.33563C14.341 6.33563 14.4386 6.35505 14.5296 6.39277C14.6207 6.43049 14.7034 6.48578 14.773 6.55547Z" fill="#10121E"/>
</g>
<defs>
<clipPath id="clip0_273_5315">
<rect width="12" height="12" fill="white" transform="translate(4 4)"/>
</clipPath>
</defs>
</svg>
