<svg width="16" height="16" viewBox="0 0 16 16" fill="none" xmlns="http://www.w3.org/2000/svg">
<path d="M3.3335 9.99998H2.66683C2.31321 9.99998 1.97407 9.8595 1.72402 9.60945C1.47397 9.35941 1.3335 9.02027 1.3335 8.66665V2.66665C1.3335 2.31302 1.47397 1.97389 1.72402 1.72384C1.97407 1.47379 2.31321 1.33331 2.66683 1.33331H8.66683C9.02045 1.33331 9.35959 1.47379 9.60964 1.72384C9.85969 1.97389 10.0002 2.31302 10.0002 2.66665V3.33331M7.3335 5.99998H13.3335C14.0699 5.99998 14.6668 6.59693 14.6668 7.33331V13.3333C14.6668 14.0697 14.0699 14.6666 13.3335 14.6666H7.3335C6.59712 14.6666 6.00016 14.0697 6.00016 13.3333V7.33331C6.00016 6.59693 6.59712 5.99998 7.3335 5.99998Z" stroke="#ADB3CC" stroke-width="1.5" stroke-linecap="round" stroke-linejoin="round"/>
</svg>
