<svg width="12" height="14" viewBox="0 0 12 14" fill="none" xmlns="http://www.w3.org/2000/svg">
<path d="M1.91667 3.49996V11.6666C1.91667 11.976 2.03958 12.2728 2.25838 12.4916C2.47717 12.7104 2.77391 12.8333 3.08333 12.8333H8.91667C9.22609 12.8333 9.52283 12.7104 9.74162 12.4916C9.96042 12.2728 10.0833 11.976 10.0833 11.6666V3.49996H1.91667ZM1.91667 3.49996H0.75M1.91667 3.49996H11.25M3.66667 3.49996V2.33329C3.66667 2.02387 3.78958 1.72713 4.00838 1.50833C4.22717 1.28954 4.52391 1.16663 4.83333 1.16663H7.16667C7.47609 1.16663 7.77283 1.28954 7.99162 1.50833C8.21042 1.72713 8.33333 2.02387 8.33333 2.33329V3.49996" stroke="#ADB3CC" stroke-width="1.2" stroke-linecap="round" stroke-linejoin="round"/>
</svg>
