<svg width="13" height="14" viewBox="0 0 13 14" fill="none" xmlns="http://www.w3.org/2000/svg">
<path d="M5.91699 2.33333H1.83366C1.52424 2.33333 1.22749 2.45625 1.0087 2.67504C0.789908 2.89383 0.666992 3.19058 0.666992 3.5V11.6667C0.666992 11.9761 0.789908 12.2728 1.0087 12.4916C1.22749 12.7104 1.52424 12.8333 1.83366 12.8333H10.0003C10.3097 12.8333 10.6065 12.7104 10.8253 12.4916C11.0441 12.2728 11.167 11.9761 11.167 11.6667V7.58333M10.292 1.45834C10.5241 1.22627 10.8388 1.0959 11.167 1.0959C11.4952 1.0959 11.8099 1.22627 12.042 1.45834C12.2741 1.6904 12.4044 2.00515 12.4044 2.33334C12.4044 2.66153 12.2741 2.97627 12.042 3.20834L6.50033 8.75L4.16699 9.33334L4.75033 7.00001L10.292 1.45834Z" stroke="#42BBFF" stroke-width="1.2" stroke-linecap="round" stroke-linejoin="round"/>
</svg>
