<svg width="14" height="14" viewBox="0 0 14 14" fill="none" xmlns="http://www.w3.org/2000/svg">
<path d="M6.4165 2.33338H2.33317C2.02375 2.33338 1.72701 2.45629 1.50821 2.67509C1.28942 2.89388 1.1665 3.19062 1.1665 3.50004V11.6667C1.1665 11.9761 1.28942 12.2729 1.50821 12.4917C1.72701 12.7105 2.02375 12.8334 2.33317 12.8334H10.4998C10.8093 12.8334 11.106 12.7105 11.3248 12.4917C11.5436 12.2729 11.6665 11.9761 11.6665 11.6667V7.58338M10.7915 1.45838C11.0236 1.22632 11.3383 1.09595 11.6665 1.09595C11.9947 1.09595 12.3094 1.22632 12.5415 1.45838C12.7736 1.69045 12.9039 2.0052 12.9039 2.33338C12.9039 2.66157 12.7736 2.97632 12.5415 3.20838L6.99984 8.75005L4.6665 9.33338L5.24984 7.00005L10.7915 1.45838Z" stroke="#ADB3CC" stroke-width="1.2" stroke-linecap="round" stroke-linejoin="round"/>
</svg>
