<svg width="16" height="16" viewBox="0 0 16 16" fill="none" xmlns="http://www.w3.org/2000/svg">
<path d="M2.55663 10.296L1.89663 10.6824C1.80636 10.7353 1.7315 10.8109 1.67948 10.9017C1.62746 10.9925 1.6001 11.0953 1.6001 11.2C1.6001 11.3046 1.62746 11.4074 1.67948 11.4982C1.7315 11.589 1.80636 11.6646 1.89663 11.7176L7.69663 15.1176C7.7886 15.1714 7.89325 15.1998 7.99983 15.1998C8.10641 15.1998 8.21105 15.1714 8.30305 15.1176L14.103 11.7176C14.1933 11.6646 14.2682 11.589 14.3202 11.4982C14.3722 11.4074 14.3995 11.3046 14.3995 11.2C14.3995 11.0953 14.3722 10.9925 14.3202 10.9017C14.2682 10.8109 14.1933 10.7353 14.103 10.6824L13.443 10.2952L8.91025 12.9528C8.63417 13.1146 8.31985 13.2 7.99983 13.2C7.67979 13.2 7.36552 13.1146 7.08943 12.9528L2.55663 10.296Z" fill="#ADB3CC"/>
<path d="M2.55663 7.09601L1.89663 7.48241C1.80636 7.53533 1.7315 7.61095 1.67948 7.70175C1.62746 7.79254 1.6001 7.89537 1.6001 8.00001C1.6001 8.10465 1.62746 8.20745 1.67948 8.29825C1.7315 8.38905 1.80636 8.46465 1.89663 8.51761L7.69663 11.9176C7.7886 11.9715 7.89325 11.9999 7.99983 11.9999C8.10641 11.9999 8.21105 11.9715 8.30305 11.9176L14.103 8.51761C14.1933 8.46465 14.2682 8.38905 14.3202 8.29825C14.3722 8.20745 14.3995 8.10465 14.3995 8.00001C14.3995 7.89537 14.3722 7.79254 14.3202 7.70175C14.2682 7.61095 14.1933 7.53533 14.103 7.48241L13.443 7.09521L8.91025 9.75281C8.63417 9.91465 8.31985 10 7.99983 10C7.67979 10 7.36552 9.91465 7.08943 9.75281L2.55663 7.09601Z" fill="#ADB3CC"/>
<path d="M8.30414 0.882278C8.21199 0.828118 8.10702 0.799561 8.00014 0.799561C7.89325 0.799561 7.7883 0.828118 7.69614 0.882278L1.89615 4.28228C1.80587 4.3352 1.73101 4.41081 1.67899 4.50161C1.62698 4.59241 1.59961 4.69523 1.59961 4.79988C1.59961 4.90452 1.62698 5.00734 1.67899 5.09814C1.73101 5.18893 1.80587 5.26455 1.89615 5.31748L7.69614 8.71748C7.7883 8.77164 7.89325 8.8002 8.00014 8.8002C8.10702 8.8002 8.21199 8.77164 8.30414 8.71748L14.1041 5.31748C14.1944 5.26455 14.2693 5.18893 14.3213 5.09814C14.3733 5.00734 14.4007 4.90452 14.4007 4.79988C14.4007 4.69523 14.3733 4.59241 14.3213 4.50161C14.2693 4.41081 14.1944 4.3352 14.1041 4.28228L8.30414 0.882278Z" fill="#ADB3CC"/>
</svg>
