<svg width="16" height="16" viewBox="0 0 16 16" fill="none" xmlns="http://www.w3.org/2000/svg">
<g clip-path="url(#clip0_280_2192)">
<path d="M6.10939 13.3359C2.69839 14.3346 2.69839 11.6713 1.33398 11.3384M10.8848 14.6667V12.7566C10.9104 12.4391 10.8664 12.12 10.7559 11.8203C10.6453 11.5207 10.4707 11.2475 10.2435 11.0188C11.3271 10.901 12.4386 10.64 13.2725 9.94029C14.9676 8.51801 15.1612 5.44782 13.6136 3.8613C13.7607 3.4766 13.8333 3.07274 13.8319 2.66948C13.8307 2.33539 13.7787 2.00171 13.6762 1.67968C13.6409 1.56863 13.5995 1.45898 13.5522 1.35117C13.5522 1.35117 13.4322 1.31643 13.1776 1.34391C12.9337 1.37024 12.5662 1.45372 12.0624 1.67968C11.7303 1.8286 11.339 2.03943 10.8848 2.33658C10.103 2.12978 9.30005 2.02638 8.49709 2.02638C7.69414 2.02638 6.89119 2.12978 6.10939 2.33658C5.68294 2.05758 5.31193 1.85469 4.99334 1.70767C4.60844 1.53006 4.30004 1.43401 4.06279 1.38385C3.63875 1.29421 3.44199 1.35117 3.44199 1.35117C3.25733 1.77164 3.16388 2.22019 3.1623 2.66948C3.16089 3.07274 3.23349 3.4766 3.38059 3.8613C1.918 5.36062 2.01623 8.17909 3.44199 9.67772C4.29621 10.5756 5.54084 10.8922 6.75066 11.0388C6.52621 11.2652 6.35312 11.5351 6.24263 11.8311C6.13214 12.127 6.08675 12.4424 6.10939 12.7566V14.6667" stroke="#55597D" stroke-width="1.5" stroke-linecap="round" stroke-linejoin="round"/>
</g>
<defs>
<clipPath id="clip0_280_2192">
<rect width="16" height="16" fill="white"/>
</clipPath>
</defs>
</svg>
