<svg width="16" height="16" viewBox="0 0 16 16" fill="none" xmlns="http://www.w3.org/2000/svg">
<path d="M13.4957 6.50492C12.7456 5.75477 11.7282 5.33334 10.6673 5.33334C9.60645 5.33334 8.58904 5.75477 7.83889 6.50492C7.08874 7.25506 6.66732 8.27248 6.66732 9.33334V14H9.33398V9.33334C9.33398 8.97972 9.47446 8.64058 9.72451 8.39053C9.97456 8.14049 10.3137 8.00001 10.6673 8.00001C11.0209 8.00001 11.3601 8.14049 11.6101 8.39053C11.8602 8.64058 12.0007 8.97972 12.0007 9.33334V14H14.6673V9.33334C14.6673 8.27248 14.2459 7.25506 13.4957 6.50492Z" stroke="#55597D" stroke-width="1.5" stroke-linecap="round" stroke-linejoin="round"/>
<path d="M4.00065 6.00001H1.33398V14H4.00065V6.00001Z" stroke="#55597D" stroke-width="1.5" stroke-linecap="round" stroke-linejoin="round"/>
<path d="M2.66732 4.00001C3.4037 4.00001 4.00065 3.40306 4.00065 2.66668C4.00065 1.9303 3.4037 1.33334 2.66732 1.33334C1.93094 1.33334 1.33398 1.9303 1.33398 2.66668C1.33398 3.40306 1.93094 4.00001 2.66732 4.00001Z" stroke="#55597D" stroke-width="1.5" stroke-linecap="round" stroke-linejoin="round"/>
</svg>
