<svg width="16" height="16" viewBox="0 0 16 16" fill="none" xmlns="http://www.w3.org/2000/svg">
<g clip-path="url(#clip0_280_2198)">
<path d="M13.2393 3.01999C13.9874 2.79473 14.6943 2.45031 15.3327 1.99999C15.1066 2.92847 14.6264 3.77565 13.946 4.44666C13.9809 4.62905 13.9987 4.81429 13.9993 4.99999C13.9993 12.6667 6.66602 16 0.666016 12.6667C2.32412 12.7326 3.9597 12.2653 5.33268 11.3333C1.10745 9.45544 1.18006 5.92454 1.59271 4C1.76603 3.19162 1.99935 2.66666 1.99935 2.66666C2.32813 3.13482 2.71094 3.55975 3.13845 3.93339C3.58674 4.32518 4.08418 4.66058 4.62002 4.93029C5.66687 5.4572 6.82777 5.71704 7.99935 5.68666V5.01999C7.99115 4.40821 8.17103 3.80868 8.51467 3.30247C8.85831 2.79626 9.34913 2.4078 9.92074 2.18963C10.4923 1.97145 11.1172 1.9341 11.7107 2.08261C12.3042 2.23112 12.8378 2.55833 13.2393 3.01999Z" stroke="#55597D" stroke-width="1.5" stroke-linecap="round" stroke-linejoin="round"/>
</g>
<defs>
<clipPath id="clip0_280_2198">
<rect width="16" height="16" fill="white"/>
</clipPath>
</defs>
</svg>
