<svg width="16" height="16" viewBox="0 0 16 16" fill="none" xmlns="http://www.w3.org/2000/svg">
<g clip-path="url(#clip0_280_2207)">
<path d="M5.70732 1.83334C8.62065 5.85334 9.72065 8.11334 11.0607 13.6467M12.754 3.39334C10.274 6.29334 6.79398 7.16668 1.50065 7.29334M14.5007 8.56001C12.1673 7.94001 10.0807 8.01334 8.54065 8.56001C6.82065 9.17334 5.20065 10.4667 3.58065 12.7733M14.6673 8.00001C14.6673 11.6819 11.6825 14.6667 8.00065 14.6667C4.31875 14.6667 1.33398 11.6819 1.33398 8.00001C1.33398 4.31811 4.31875 1.33334 8.00065 1.33334C11.6825 1.33334 14.6673 4.31811 14.6673 8.00001Z" stroke="#55597D" stroke-width="1.5" stroke-linecap="round" stroke-linejoin="round"/>
</g>
<defs>
<clipPath id="clip0_280_2207">
<rect width="16" height="16" fill="white"/>
</clipPath>
</defs>
</svg>
