<svg width="16" height="16" viewBox="0 0 16 16" fill="none" xmlns="http://www.w3.org/2000/svg">
<g clip-path="url(#clip0_280_2201)">
<path d="M11.6673 4.33334H11.674M4.66732 1.33334H11.334C13.1749 1.33334 14.6673 2.82573 14.6673 4.66668V11.3333C14.6673 13.1743 13.1749 14.6667 11.334 14.6667H4.66732C2.82637 14.6667 1.33398 13.1743 1.33398 11.3333V4.66668C1.33398 2.82573 2.82637 1.33334 4.66732 1.33334ZM10.6673 7.58001C10.7496 8.13484 10.6548 8.70148 10.3965 9.19935C10.1382 9.69722 9.72942 10.1009 9.22841 10.3531C8.7274 10.6053 8.15962 10.6931 7.60585 10.604C7.05208 10.5149 6.5405 10.2534 6.14389 9.85678C5.74727 9.46017 5.48581 8.94859 5.3967 8.39482C5.30759 7.84104 5.39537 7.27327 5.64754 6.77226C5.89972 6.27124 6.30345 5.8625 6.80132 5.60417C7.29918 5.34584 7.86583 5.25107 8.42066 5.33334C8.98661 5.41726 9.51056 5.68098 9.91512 6.08554C10.3197 6.49011 10.5834 7.01406 10.6673 7.58001Z" stroke="#55597D" stroke-width="1.5" stroke-linecap="round" stroke-linejoin="round"/>
</g>
<defs>
<clipPath id="clip0_280_2201">
<rect width="16" height="16" fill="white"/>
</clipPath>
</defs>
</svg>
