<svg width="14" height="13" viewBox="0 0 14 13" fill="none" xmlns="http://www.w3.org/2000/svg">
<path d="M8.16629 5.91667C7.91578 5.58176 7.59617 5.30464 7.22914 5.10412C6.86211 4.90359 6.45625 4.78435 6.03908 4.75447C5.62192 4.72459 5.2032 4.78478 4.81134 4.93096C4.41948 5.07713 4.06364 5.30587 3.76796 5.60167L2.01796 7.35167C1.48667 7.90176 1.19268 8.63851 1.19933 9.40325C1.20597 10.168 1.51272 10.8995 2.05349 11.4403C2.59426 11.9811 3.3258 12.2878 4.09054 12.2945C4.85528 12.3011 5.59204 12.0071 6.14213 11.4758L7.13963 10.4783M5.83295 7.08332C6.08347 7.41823 6.40308 7.69535 6.77011 7.89587C7.13714 8.0964 7.543 8.21564 7.96016 8.24552C8.37733 8.27539 8.79604 8.2152 9.1879 8.06903C9.57976 7.92285 9.9356 7.69411 10.2313 7.39832L11.9813 5.64832C12.5126 5.09823 12.8066 4.36148 12.7999 3.59674C12.7933 2.832 12.4865 2.10046 11.9458 1.55969C11.405 1.01891 10.6734 0.712169 9.9087 0.705524C9.14396 0.698879 8.40721 0.992862 7.85712 1.52416L6.85379 2.52166" stroke="#55597D" stroke-width="1.2" stroke-linecap="round" stroke-linejoin="round"/>
</svg>
