<svg width="212" height="50" viewBox="0 0 212 50" fill="none" xmlns="http://www.w3.org/2000/svg">
<g clip-path="url(#clip0_589_7586)">
<path d="M67.2664 45.7045C64.2323 45.7045 61.4709 45.0739 58.9823 43.8125C56.5277 42.517 54.5675 40.6079 53.1016 38.0852C51.6698 35.5284 50.9539 32.375 50.9539 28.625C50.9539 25.8636 51.38 23.4091 52.2323 21.2613C53.0846 19.0795 54.2607 17.2386 55.7607 15.7386C57.2607 14.2386 58.9823 13.0966 60.9255 12.3125C62.9027 11.5284 64.9993 11.1363 67.2152 11.1363C69.6357 11.1363 71.7152 11.5625 73.4539 12.4148C75.1925 13.267 76.6073 14.2898 77.6982 15.4829L73.7607 20.0341C72.9425 19.2841 72.0391 18.7045 71.0505 18.2954C70.0959 17.8523 68.9027 17.6307 67.4709 17.6307C65.7664 17.6307 64.2493 18.0739 62.9198 18.9602C61.5902 19.8125 60.5505 21.0398 59.8005 22.642C59.0505 24.2443 58.6755 26.1534 58.6755 28.3693C58.6755 30.6534 59.0164 32.6136 59.6982 34.25C60.4141 35.8523 61.4539 37.0795 62.8175 37.9318C64.2152 38.7841 65.9539 39.2102 68.0334 39.2102C68.7152 39.2102 69.38 39.125 70.0277 38.9545C70.6755 38.7841 71.2039 38.5284 71.613 38.1875V32.4602H66.0902V26.3239H78.2607V41.6648C77.1357 42.7898 75.6016 43.7443 73.6584 44.5284C71.7493 45.3125 69.6186 45.7045 67.2664 45.7045ZM83.0008 45.0909V19.7273H90.5178V45.0909H83.0008ZM86.7338 15.9943C85.4724 15.9943 84.4497 15.6364 83.6656 14.9204C82.8815 14.2045 82.4894 13.25 82.4894 12.0568C82.4894 10.8636 82.8815 9.90908 83.6656 9.19317C84.4497 8.47726 85.4724 8.1193 86.7338 8.1193C87.9951 8.1193 89.0178 8.47726 89.8019 9.19317C90.586 9.90908 90.9781 10.8636 90.9781 12.0568C90.9781 13.25 90.586 14.2045 89.8019 14.9204C89.0178 15.6364 87.9951 15.9943 86.7338 15.9943ZM105.366 45.6534C102.23 45.6534 99.9798 44.75 98.6162 42.9432C97.2525 41.1023 96.5707 38.7329 96.5707 35.8352V25.6079H93.1446V20.0341L97.0309 19.7273L97.9003 11.9545H104.139V19.7273H110.224V25.6079H104.139V35.7329C104.139 37.1648 104.429 38.2045 105.008 38.8523C105.622 39.4659 106.423 39.7727 107.412 39.7727C107.821 39.7727 108.23 39.7386 108.639 39.6704C109.048 39.6023 109.44 39.5 109.815 39.3636L111.042 44.6307C110.395 44.9034 109.576 45.142 108.588 45.3466C107.633 45.5511 106.559 45.6534 105.366 45.6534ZM114.254 45.0909V11.75H122.129L130.669 28.1648C131.283 29.2898 131.845 30.5 132.357 31.7954C132.902 33.0568 133.43 34.3523 133.942 35.6818H134.146C133.976 33.875 133.771 31.8977 133.533 29.75C133.294 27.6023 133.175 25.5398 133.175 23.5625V11.75H140.385V45.0909H132.51L123.97 28.6761C123.391 27.5511 122.811 26.3409 122.232 25.0454C121.686 23.75 121.158 22.4545 120.646 21.1591H120.442C120.646 23 120.868 24.9943 121.107 27.142C121.345 29.2557 121.465 31.3011 121.465 33.2784V45.0909H114.254ZM157.006 45.7045C154.859 45.7045 152.847 45.1932 150.972 44.1704C149.097 43.1136 147.563 41.5966 146.37 39.6193C145.211 37.6079 144.631 35.2045 144.631 32.4091C144.631 29.6136 145.211 27.2273 146.37 25.25C147.563 23.2386 149.097 21.7216 150.972 20.6988C152.847 19.642 154.859 19.1136 157.006 19.1136C159.12 19.1136 161.114 19.642 162.989 20.6988C164.864 21.7216 166.381 23.2386 167.54 25.25C168.734 27.2273 169.33 29.6136 169.33 32.4091C169.33 35.2045 168.734 37.6079 167.54 39.6193C166.381 41.5966 164.864 43.1136 162.989 44.1704C161.114 45.1932 159.12 45.7045 157.006 45.7045ZM157.006 39.6193C158.029 39.6193 158.881 39.3295 159.563 38.75C160.279 38.1704 160.807 37.3352 161.148 36.2443C161.489 35.1534 161.66 33.875 161.66 32.4091C161.66 30.9432 161.489 29.6648 161.148 28.5739C160.807 27.4829 160.279 26.6477 159.563 26.0682C158.881 25.4886 158.029 25.1988 157.006 25.1988C155.949 25.1988 155.08 25.4886 154.398 26.0682C153.717 26.6477 153.205 27.4829 152.864 28.5739C152.523 29.6648 152.353 30.9432 152.353 32.4091C152.353 33.875 152.523 35.1534 152.864 36.2443C153.205 37.3352 153.717 38.1704 154.398 38.75C155.08 39.3295 155.949 39.6193 157.006 39.6193ZM181.364 45.6534C178.227 45.6534 175.977 44.75 174.614 42.9432C173.25 41.1023 172.568 38.7329 172.568 35.8352V25.6079H169.142V20.0341L173.028 19.7273L173.898 11.9545H180.136V19.7273H186.222V25.6079H180.136V35.7329C180.136 37.1648 180.426 38.2045 181.006 38.8523C181.619 39.4659 182.42 39.7727 183.409 39.7727C183.818 39.7727 184.227 39.7386 184.636 39.6704C185.045 39.6023 185.437 39.5 185.812 39.3636L187.04 44.6307C186.392 44.9034 185.574 45.142 184.585 45.3466C183.631 45.5511 182.557 45.6534 181.364 45.6534ZM200.091 45.7045C197.671 45.7045 195.489 45.1761 193.546 44.1193C191.603 43.0625 190.069 41.5454 188.944 39.5682C187.819 37.5909 187.256 35.2045 187.256 32.4091C187.256 29.6477 187.819 27.2784 188.944 25.3011C190.103 23.3238 191.603 21.8068 193.444 20.75C195.285 19.6591 197.211 19.1136 199.222 19.1136C201.643 19.1136 203.654 19.6591 205.256 20.75C206.859 21.8068 208.052 23.2557 208.836 25.0966C209.62 26.9375 210.012 29 210.012 31.2841C210.012 31.9318 209.978 32.5795 209.91 33.2273C209.841 33.8409 209.773 34.3352 209.705 34.7102H193.086L192.984 29.4943H203.569C203.569 28.1648 203.245 27.0739 202.597 26.2216C201.949 25.3352 200.876 24.892 199.376 24.892C198.557 24.892 197.756 25.1136 196.972 25.5568C196.188 26 195.54 26.767 195.029 27.8579C194.518 28.9489 194.279 30.4659 194.313 32.4091C194.347 34.3182 194.688 35.8182 195.336 36.9091C196.018 38 196.87 38.7841 197.893 39.2614C198.915 39.7045 199.989 39.9261 201.114 39.9261C202.103 39.9261 203.04 39.7898 203.927 39.517C204.847 39.2102 205.751 38.8011 206.637 38.2898L209.091 42.892C207.83 43.7784 206.398 44.4773 204.796 44.9886C203.194 45.4659 201.626 45.7045 200.091 45.7045Z" fill="white"/>
<path d="M31.5284 17.2725H41.7581L29.9571 5.45432V15.6989C29.9571 16.566 30.6626 17.2725 31.5284 17.2725Z" fill="#42BBFF"/>
<path d="M31.3304 18.0135C29.7664 18.0135 28.509 16.7353 28.509 15.1453V4.54546H7.04148C6.15211 4.54546 5.44675 5.26251 5.44675 6.19779V17.4835H15.3831C15.5672 17.4835 15.6898 17.3276 15.6898 17.1717V15.27C15.6898 14.9894 15.9965 14.8335 16.1805 15.0206L20.9647 18.6993C21.118 18.824 21.118 19.0735 20.9647 19.1982L16.1805 22.9081C15.9965 23.064 15.6898 22.9081 15.6898 22.6587V20.7258C15.6898 20.5699 15.5672 20.414 15.3831 20.414H5.44675V25.2775H21.118C21.2714 25.2775 21.4247 25.1528 21.4247 24.9657V23.064C21.4247 22.8146 21.7007 22.6587 21.9154 22.8146L26.6689 26.4933C26.8529 26.6492 26.8529 26.8986 26.6689 27.0233L21.9154 30.7021C21.7007 30.858 21.4247 30.7021 21.4247 30.4527V28.551C21.4247 28.3639 21.2714 28.2392 21.118 28.2392H5.44675V33.1026H26.8223C27.0063 33.1026 27.1289 32.9468 27.1289 32.7909V30.858C27.1289 30.6086 27.4356 30.4527 27.6503 30.6086L32.4038 34.3185C32.5571 34.4432 32.5571 34.6926 32.4038 34.8173L27.6503 38.4961C27.4356 38.6831 27.1289 38.5273 27.1289 38.2467V36.3449C27.1289 36.1891 27.0063 36.0332 26.8223 36.0332H5.44675V40.8966H32.5571C32.7105 40.8966 32.8638 40.7719 32.8638 40.5849V38.6831C32.8638 38.4026 33.1705 38.2779 33.3545 38.4337L38.108 42.1125C38.292 42.2372 38.292 42.4866 38.108 42.6113L33.3545 46.3212C33.1705 46.4771 32.8638 46.3213 32.8638 46.0718V44.1701C32.8638 43.983 32.7105 43.8272 32.5571 43.8272H5.44675V48.3477C5.44675 49.283 6.15211 50 7.04148 50H40.1628C41.0521 50 41.7575 49.283 41.7575 48.3477V18.0135H31.3304Z" fill="url(#paint0_linear_589_7586)"/>
<path d="M3.4379 2.16302H29.0486V0H2.99633C1.35623 0 0 1.31661 0 2.97806V45.4545H2.17629V3.41694C2.17629 2.72728 2.74401 2.16302 3.4379 2.16302Z" fill="#2E3757"/>
</g>
<defs>
<linearGradient id="paint0_linear_589_7586" x1="5.44675" y1="23.9057" x2="41.7575" y2="23.9057" gradientUnits="userSpaceOnUse">
<stop stop-color="#43B7FE"/>
<stop offset="1" stop-color="#4F48E6"/>
</linearGradient>
<clipPath id="clip0_589_7586">
<rect width="212" height="50" fill="white"/>
</clipPath>
</defs>
</svg>
