<svg width="18" height="18" viewBox="0 0 18 18" fill="none" xmlns="http://www.w3.org/2000/svg">
<path fill-rule="evenodd" clip-rule="evenodd" d="M7.24645 8.35835C6.88187 8.35835 6.59359 8.64169 6.59359 9.00002C6.59359 9.35002 6.88187 9.64169 7.24645 9.64169H12.3337V13.625C12.3337 15.6667 10.6464 17.3334 8.56065 17.3334H4.43153C2.35425 17.3334 0.666992 15.675 0.666992 13.6334V4.37502C0.666992 2.32502 2.36273 0.666687 4.44001 0.666687H8.5776C10.6464 0.666687 12.3337 2.32502 12.3337 4.36669V8.35835H7.24645ZM15.3588 6.11685L17.7922 8.54185C17.9172 8.66685 17.9838 8.82519 17.9838 9.00019C17.9838 9.16685 17.9172 9.33352 17.7922 9.45019L15.3588 11.8752C15.2338 12.0002 15.0672 12.0669 14.9088 12.0669C14.7422 12.0669 14.5755 12.0002 14.4505 11.8752C14.2005 11.6252 14.2005 11.2169 14.4505 10.9669L15.7838 9.64185H12.3338V8.35852H15.7838L14.4505 7.03352C14.2005 6.78352 14.2005 6.37519 14.4505 6.12519C14.7005 5.86685 15.1088 5.86685 15.3588 6.11685Z" fill="#55597D"/>
</svg>
