<svg width="16" height="16" viewBox="0 0 16 16" fill="none" xmlns="http://www.w3.org/2000/svg">
<mask id="mask0_595_9072" style="mask-type:luminance" maskUnits="userSpaceOnUse" x="0" y="0" width="16" height="16">
<path d="M16 0H0V16H16V0Z" fill="white"/>
</mask>
<g mask="url(#mask0_595_9072)">
<path d="M12.2501 0H3.75C1.67894 0 0 1.67894 0 3.75V12.2501C0 14.321 1.67894 16 3.75 16H12.2501C14.321 16 16 14.321 16 12.2501V3.75C16 1.67894 14.321 0 12.2501 0Z" fill="#242938"/>
<path d="M7.59063 1.75342C7.56375 1.75586 7.47819 1.76442 7.40119 1.77049C5.62582 1.93054 3.96281 2.88854 2.9095 4.36092C2.32306 5.17961 1.94787 6.10823 1.80619 7.09191C1.75613 7.4353 1.75 7.53673 1.75 8.00223C1.75 8.46779 1.75613 8.56923 1.80625 8.91254C2.14587 11.2598 3.81625 13.2319 6.08162 13.9627C6.48731 14.0934 6.91494 14.1826 7.40125 14.2364C7.59069 14.2571 8.40931 14.2571 8.59875 14.2364C9.43818 14.1435 10.1493 13.9358 10.8507 13.5778C10.9582 13.5228 10.979 13.5081 10.9643 13.4959C10.9546 13.4885 10.4963 12.8739 9.9465 12.131L8.94701 10.7809L7.6945 8.92723C7.00537 7.90817 6.43843 7.07479 6.4335 7.07479C6.42863 7.07361 6.42375 7.89717 6.42131 8.90279C6.41762 10.6635 6.41643 10.7344 6.39443 10.7759C6.36269 10.8358 6.33825 10.8602 6.28688 10.8872C6.24782 10.9067 6.21357 10.9104 6.02906 10.9104H5.81769L5.76144 10.8749C5.72662 10.8531 5.69833 10.8223 5.67957 10.7857L5.65394 10.7307L5.65643 8.28085L5.66007 5.82973L5.69794 5.78204C5.7175 5.75642 5.75906 5.72342 5.78838 5.70754C5.83843 5.6831 5.858 5.68067 6.06937 5.68067C6.31869 5.68067 6.36019 5.69042 6.42501 5.7613C6.44331 5.78085 7.12144 6.80236 7.93281 8.03279C8.75423 9.27822 9.57615 10.5233 10.3986 11.7681L11.3883 13.2674L11.4384 13.2345C11.882 12.946 12.3512 12.5355 12.7227 12.1078C13.5132 11.1999 14.0228 10.0929 14.1938 8.91254C14.2439 8.56923 14.25 8.46779 14.25 8.00223C14.25 7.53673 14.2439 7.4353 14.1938 7.09191C13.8541 4.74467 12.1837 2.77254 9.91838 2.04186C9.51881 1.91229 9.09362 1.8231 8.61706 1.76936C8.49975 1.7571 7.69201 1.74368 7.59063 1.75342ZM10.1493 5.53404C10.2079 5.56335 10.2556 5.61954 10.2728 5.67817C10.2825 5.70998 10.2849 6.38936 10.2825 7.92036L10.2788 10.1174L9.8915 9.52348L9.50294 8.92966V7.33267C9.50294 6.30017 9.50782 5.71973 9.51513 5.69161C9.53469 5.62323 9.57744 5.56948 9.63613 5.53766C9.68619 5.51204 9.70456 5.50954 9.89638 5.50954C10.0773 5.50954 10.109 5.51204 10.1493 5.53404Z" fill="white"/>
</g>
</svg>
