<svg width="14" height="14" viewBox="0 0 14 14" fill="none" xmlns="http://www.w3.org/2000/svg">
<path fill-rule="evenodd" clip-rule="evenodd" d="M4.27616 1.16673H9.71866C11.702 1.16673 12.8337 2.28673 12.8337 4.27589V9.72423C12.8337 11.7017 11.7078 12.8334 9.72449 12.8334H4.27616C2.28699 12.8334 1.16699 11.7017 1.16699 9.72423V4.27589C1.16699 2.28673 2.28699 1.16673 4.27616 1.16673ZM7.47866 7.48423H9.13533C9.40366 7.47839 9.61949 7.26256 9.61949 6.99423C9.61949 6.72589 9.40366 6.51006 9.13533 6.51006H7.47866V4.86506C7.47866 4.59673 7.26283 4.38089 6.99449 4.38089C6.72616 4.38089 6.51033 4.59673 6.51033 4.86506V6.51006H4.85949C4.73116 6.51006 4.60866 6.56256 4.51533 6.65006C4.42783 6.74339 4.37533 6.86531 4.37533 6.99423C4.37533 7.26256 4.59116 7.47839 4.85949 7.48423H6.51033V9.13506C6.51033 9.40339 6.72616 9.61922 6.99449 9.61922C7.26283 9.61922 7.47866 9.40339 7.47866 9.13506V7.48423Z" fill="white"/>
</svg>
