<svg width="14" height="12" viewBox="0 0 14 12" fill="none" xmlns="http://www.w3.org/2000/svg">
<path d="M6.99995 0.75C10.1453 0.75 12.7621 3.01333 13.311 6C12.7627 8.98667 10.1453 11.25 6.99995 11.25C3.85462 11.25 1.23779 8.98667 0.689453 6C1.23779 3.01333 3.85462 0.75 6.99995 0.75ZM6.99995 10.0833C8.18974 10.0832 9.34425 9.67917 10.2745 8.93736C11.2047 8.19555 11.8555 7.15992 12.1205 6C11.8548 4.84081 11.2037 3.80606 10.2736 3.06498C9.34352 2.32391 8.18948 1.92037 7.00024 1.92037C5.81101 1.92037 4.65697 2.32391 3.72687 3.06498C2.79677 3.80606 2.14566 4.84081 1.88004 6C2.14493 7.15983 2.79568 8.19538 3.72579 8.93718C4.65589 9.67898 5.81026 10.0831 6.99995 10.0833ZM6.99995 8.625C6.30376 8.625 5.63608 8.34844 5.1438 7.85615C4.65151 7.36387 4.37495 6.69619 4.37495 6C4.37495 5.30381 4.65151 4.63613 5.1438 4.14384C5.63608 3.65156 6.30376 3.375 6.99995 3.375C7.69615 3.375 8.36382 3.65156 8.85611 4.14384C9.34839 4.63613 9.62495 5.30381 9.62495 6C9.62495 6.69619 9.34839 7.36387 8.85611 7.85615C8.36382 8.34844 7.69615 8.625 6.99995 8.625ZM6.99995 7.45833C7.38673 7.45833 7.75766 7.30469 8.03115 7.0312C8.30464 6.75771 8.45829 6.38677 8.45829 6C8.45829 5.61323 8.30464 5.24229 8.03115 4.9688C7.75766 4.69531 7.38673 4.54167 6.99995 4.54167C6.61318 4.54167 6.24225 4.69531 5.96876 4.9688C5.69526 5.24229 5.54162 5.61323 5.54162 6C5.54162 6.38677 5.69526 6.75771 5.96876 7.0312C6.24225 7.30469 6.61318 7.45833 6.99995 7.45833Z" fill="#55597D"/>
</svg>
