<svg width="18" height="16" viewBox="0 0 18 16" fill="none" xmlns="http://www.w3.org/2000/svg">
<path d="M12 14.75V13.25C12 12.4544 11.6839 11.6913 11.1213 11.1287C10.5587 10.5661 9.79565 10.25 9 10.25H3.75C2.95435 10.25 2.19129 10.5661 1.62868 11.1287C1.06607 11.6913 0.75 12.4544 0.75 13.25V14.75M12.75 7.25L14.25 8.75L17.25 5.75M9.375 4.25C9.375 5.90685 8.03185 7.25 6.375 7.25C4.71815 7.25 3.375 5.90685 3.375 4.25C3.375 2.59315 4.71815 1.25 6.375 1.25C8.03185 1.25 9.375 2.59315 9.375 4.25Z" stroke="#68D1BF" stroke-width="1.5" stroke-linecap="round" stroke-linejoin="round"/>
</svg>
